<svg width="1024" height="1024" viewBox="0 0 1024 1024" fill="none" xmlns="http://www.w3.org/2000/svg">
<path fill-rule="evenodd" clip-rule="evenodd" d="M825.956 302.815C732.873 152.172 732.873 52 495.625 52C258.377 52 -173.808 643.913 201.085 872.969C575.977 1102.02 969.268 881.276 969.268 737.002C969.268 592.728 919.038 453.457 825.956 302.815Z" fill="#A89DD6" fill-opacity="0.75"/>
<path fill-rule="evenodd" clip-rule="evenodd" d="M631.415 435.221C627.554 411.862 640.226 407.016 631.415 384.811C611.833 343.667 558.468 345.44 519.308 342.276C475.63 340.602 431.422 346.369 391.156 363.875C381.538 368.056 372.287 372.973 363.419 378.56C355.751 383.391 356.805 392.577 361.64 397.588C326.775 446.96 346.716 513.232 318.897 565.201C313.758 574.491 306.961 582.821 302.494 592.487C295.704 607.18 295.269 628.233 310.667 637.99C332.354 649.63 344.456 626.583 355.112 659.993C408.33 776.483 515.329 783.043 616.905 722.31C625.693 717.421 634.662 711.896 641.298 704.217C656.361 687.265 654.587 663.427 654.92 642.259C655.106 629.854 655.137 617.446 655.016 605.039C654.542 554.781 637.885 485.065 631.415 435.221Z" fill="#FFDBB4"/>
<path fill-rule="evenodd" clip-rule="evenodd" d="M415.066 295.507C476.396 267.687 545.957 257.137 612.857 264.057C645.878 267.468 678.463 274.784 709.474 286.669L712.193 287.719C719.848 290.665 728.1 293.59 733.917 299.587C740.688 306.557 742.587 317.097 737.747 325.707C733.987 332.397 727.227 337.196 720.017 339.757C722.557 341.837 724.967 344.157 727.227 346.747C731.037 351.087 731.327 357.276 727.227 361.557C719.327 369.807 709.077 375.776 698.037 378.637C699.277 384.627 698.607 391.257 695.947 397.227C688.314 414.364 666.813 416.407 650.267 415.389L649.767 415.357L648.847 425.887C648.357 431.497 644.997 435.847 639.297 436.707C639.097 436.737 638.896 436.757 638.697 436.776C647.717 469.397 653.167 503.026 658.197 536.457C660.825 553.908 663.178 571.4 665.43 588.903L666.177 594.737C668.577 613.607 671.577 632.667 672.617 651.677C673.547 668.927 670.257 685.397 659.627 699.317C650.087 711.797 637.077 721.147 623.087 728.087C591.477 743.776 558.207 755.457 523.247 760.877L520.916 761.236C507.421 763.296 493.517 765.032 480.167 761.297C468.438 758.017 456.137 749.557 458.787 735.967C459.677 731.377 466.097 731.177 468.297 734.727L468.805 735.541C471.443 739.727 474.334 743.617 478.938 745.776C484.327 748.317 490.577 749.026 496.467 749.097C512.917 749.287 530.047 745.187 545.887 741.077C575.467 733.398 605.847 720.877 630.077 701.907C640.387 693.847 648.667 683.767 651.587 670.797C655.197 654.807 651.877 637.327 650.237 621.257C646.862 588.098 642.845 555 638.607 521.939L637.757 515.327C634.188 487.687 630.438 460.037 628.657 432.237C627.917 431.227 627.417 430.077 627.217 428.817L626.938 427.007C626.697 425.457 626.657 424.037 626.827 422.727C626.837 417.707 626.977 412.717 627.267 407.696C627.316 406.797 627.357 405.897 627.387 405.007C622.167 406.157 616.907 407.087 611.627 407.877C574.507 413.467 536.807 414.867 499.387 412.087C480.717 410.696 462.188 408.307 443.717 405.317C434.316 403.797 424.947 402.117 415.607 400.237C408.857 398.887 402.247 397.057 395.607 395.337C388.757 405.307 385.057 417.577 385.777 429.627C386.587 443.377 395.747 455.847 393.177 469.897C390.765 483.046 379.5 487.123 368.378 490.38L363.647 491.747C360.008 492.809 357.366 493.834 356.707 498.207C355.577 505.717 356.967 514.167 357.257 521.717C357.607 530.647 358.066 539.577 358.277 548.507C358.387 553.127 358.566 557.767 358.557 562.387C358.547 565.667 358.057 567.907 356.787 570.026C357.767 571.257 358.646 572.587 359.427 573.997C359.677 574.457 359.057 574.946 358.688 574.567C357.697 573.537 356.646 572.607 355.537 571.776C354.977 572.467 354.327 573.167 353.566 573.917L353.507 573.837C351.127 576.207 347.347 576.437 344.396 573.917L343.622 573.246C341.462 571.353 339.978 569.776 339.377 566.647C339.347 566.487 339.316 566.327 339.297 566.167C333.807 565.977 328.227 567.276 323.287 570.007C315.457 574.337 309.947 580.507 306.688 588.127C307.987 589.647 309.507 591.007 311.277 592.147C311.527 592.317 311.307 592.687 311.037 592.557C309.227 591.707 307.607 590.657 306.157 589.427C304.987 592.427 304.167 595.647 303.667 599.057C301.907 611.097 305.047 625.807 315.927 632.667C320.637 635.637 326.017 637.247 331.597 637.267C334.316 637.276 336.667 636.817 339.307 636.167C341.097 635.727 342.877 635.087 344.747 635.087C346.347 635.087 347.827 635.487 349.197 636.287L348.817 636.321C347.894 636.407 348.071 636.446 349.357 636.446C353.357 636.617 355.646 640.677 353.807 644.207L353.566 644.753C353.515 644.863 353.472 644.954 353.438 645.026L353.293 645.963C353.278 646.052 353.263 646.143 353.247 646.237L353.191 646.427C353.181 646.457 353.17 646.487 353.157 646.517L359.156 655.666C366.511 666.857 374.031 678.005 382.587 688.227C388.587 695.397 394.947 702.427 401.667 708.937C407.707 714.787 414.947 717.607 421.787 722.207C425.438 724.647 426.507 729.757 423.188 733.047C413.447 742.717 399.657 735.037 391.667 727.177C384.107 719.727 377.577 710.767 371.947 701.797C361.957 685.847 354.007 668.887 350.527 650.477C349.077 651.807 347.227 652.637 345.357 653.287C341.607 654.587 337.477 655.127 333.517 655.267C325.927 655.517 318.327 653.677 311.497 650.417C283.707 637.167 279.627 597.487 296.617 574.087C294.326 567.444 293.047 560.235 291.656 554.088L291.024 551.34C283.999 520.647 279.281 488.333 291.737 458.257C293.337 454.377 295.137 450.597 297.267 446.977C298.977 444.067 301.917 440.967 302.727 437.657C304.527 430.387 293.417 422.747 290.177 416.977C286.367 410.207 285.827 402.217 291.017 396.026C291.677 395.247 292.396 394.526 293.177 393.897C288.257 384.977 288.027 373.757 294.507 364.957C298.767 359.157 305.267 355.097 312.367 353.867C316.707 353.117 321.927 353.397 326.697 354.737C352.816 330.487 382.617 310.227 415.066 295.507ZM314.766 598.937C321.737 592.787 329.437 589.567 338.937 590.377C348.487 591.196 359.987 595.147 365.596 603.337C370.027 609.807 360.997 619.297 354.497 614.437C348.577 610.007 344.626 605.007 337.277 602.627C330.676 600.497 322.506 599.127 315.596 600.347C314.836 600.477 314.077 599.537 314.766 598.937Z" fill="black"/>
<path fill-rule="evenodd" clip-rule="evenodd" d="M478.357 684.419L467.791 644.082L469.495 644.346C486.256 646.98 494.637 649.685 494.637 652.46L494.63 652.649C494.409 655.774 488.984 666.364 478.357 684.419ZM575.623 652.8L571.881 681.641L552.39 660.278L575.623 652.8Z" fill="white"/>
<path fill-rule="evenodd" clip-rule="evenodd" d="M468.162 642.672C475.415 641.272 484.438 644.322 491.671 645.658L492.21 645.755C500.981 647.287 509.733 649.139 518.601 650.043C527.067 650.908 535.713 651.063 544.18 650.09C548.246 649.622 552.277 648.826 556.227 647.758C557.917 647.301 559.593 646.791 561.249 646.225L561.437 646.153C562.653 645.651 565.943 643.758 565.904 644.813C566.829 643.746 568.103 642.989 569.502 642.621C571.476 642.102 574.01 642.589 575.662 643.985C577.811 642.283 581.035 643.504 582.476 645.542C584.948 649.037 584.144 653.134 583.824 657.189L583.797 657.546C583.526 661.368 583.111 665.164 582.599 668.958L582.373 670.583C581.576 676.194 581.357 685.448 574.558 687.287C569.181 688.743 564.26 683.21 560.794 678.819L558.896 676.387C556.649 673.536 554.609 670.601 552.965 667.36C552.216 665.885 551.492 664.374 550.865 662.843C550.786 662.65 550.728 662.477 550.668 662.303C540.696 663.645 530.488 663.453 520.49 662.135C514.16 661.3 507.924 660.094 501.782 658.474L499.011 663.483C495.769 669.324 492.48 675.147 489.022 680.856L488.754 681.291C485.518 686.44 480.099 691.597 473.692 687.74C467.959 684.288 467.715 676.436 467.111 670.577C466.708 666.663 466.381 662.723 466.224 658.787L466.167 657.101C466.064 653.285 465.443 648.862 466.91 645.293C467.123 644.773 467.87 644.373 468.32 644.92C471.385 648.646 472.312 654.421 473.636 658.994C475.11 664.082 477.245 669.639 478.011 674.917L478.225 674.545C478.98 673.112 479.75 671.686 480.523 670.262L482.843 665.991C484.924 662.135 487.043 658.303 489.181 654.48C486.74 653.563 484.321 652.578 481.912 651.576L476.445 649.29C473.322 647.971 470.138 646.482 467.79 644.082C467.374 643.657 467.519 642.795 468.162 642.672Z" fill="black"/>
<path fill-rule="evenodd" clip-rule="evenodd" d="M571.88 656.76C566.493 658.95 560.921 660.53 555.248 661.578C555.614 661.953 555.979 662.328 556.319 662.722C557.654 664.267 559.07 665.751 560.495 667.218L561.35 668.097C563.532 670.336 566.81 674.023 570.155 676.166L570.336 675.199C570.365 675.032 570.389 674.887 570.401 674.775L570.757 671.594C570.815 671.064 570.871 670.533 570.924 670.002C571.212 667.133 571.441 664.258 571.681 661.385C571.807 659.871 571.837 658.316 571.88 656.76Z" fill="white"/>
<path fill-rule="evenodd" clip-rule="evenodd" d="M537.814 576.367C545.365 580.957 556.871 591.661 548.748 603.04C539.186 613.073 525.418 601.569 518.634 596.366C512.343 592.334 505.275 602.705 511.112 607.413C560.135 643.708 580.03 577.568 541.633 570.971C537.406 570.244 535.836 574.947 537.814 576.367Z" fill="black"/>
<path fill-rule="evenodd" clip-rule="evenodd" d="M458.071 544.893C462.706 537.939 473.286 538.963 475.839 547.215C477.222 551.685 475.312 555.703 475.411 560.167C475.494 563.938 475.247 568.14 474.091 571.792C471.455 580.12 463.965 586.002 455.104 585.758C446.272 585.515 438.493 579.925 434.794 572.052C431.082 564.149 431.868 555.97 434.578 547.934C434.708 547.548 435.214 547.361 435.519 547.686C438.723 551.09 441.068 554.684 443.494 558.496L445.981 562.403C447.881 565.345 450.643 569.103 454.191 568.867L454.724 568.815C455.71 568.73 455.559 568.926 456.319 567.582C456.671 566.96 456.607 565.804 456.777 565.07L456.836 564.822L456.804 564.688C456.729 564.333 456.655 563.663 456.594 562.5L456.581 562.244C456.324 556.807 454.787 549.82 458.071 544.893Z" fill="black"/>
<path fill-rule="evenodd" clip-rule="evenodd" d="M575.563 549.522C574.732 540.628 587.236 538.653 591.393 545.234C593.561 548.666 594.192 552.977 594.672 557.062L594.896 559C595.388 563.195 595.583 567.559 593.762 571.472C590.894 577.635 584.657 580.893 577.929 580.377C571.504 579.883 565.642 576.158 562.552 570.503C559.797 565.457 557.058 555.605 560.404 550.342C560.606 550.023 561.01 549.982 561.287 550.228C564.449 553.035 564.964 558.155 566.844 561.812C568.783 565.584 571.724 569.26 576.181 569.833C580.445 570.381 582.074 568.052 580.986 563.987C579.583 558.739 576.091 555.169 575.563 549.522Z" fill="black"/>
<path fill-rule="evenodd" clip-rule="evenodd" d="M461.449 492.016L463.494 491.233C470.5 488.586 480.119 485.527 485.815 491.224C489.329 494.737 489.998 499.912 487.49 504.199C484.451 509.392 479 509.52 473.736 510.285C467.749 511.155 461.66 512.809 456.086 515.167C449.807 517.824 443.98 521.136 438.271 524.835C432.845 528.35 427.438 534.095 420.943 535.178C420.678 535.222 420.377 535.108 420.308 534.817C418.833 528.467 422.932 522.218 426.59 517.264C431.016 511.266 436.379 506.343 442.373 501.929C448.158 497.668 454.768 494.589 461.449 492.016Z" fill="black"/>
<path fill-rule="evenodd" clip-rule="evenodd" d="M588.718 514.593L589.342 514.483C593.591 513.776 597.441 513.939 600.643 517.304C603.087 519.871 604.029 523.198 602.864 526.592C601.789 529.723 599.385 532.904 595.896 533.56C584.117 535.776 571.07 535.41 559.232 533.732C553.815 532.964 548.351 532.024 543.075 530.542L540.648 529.838C536.244 528.58 531.202 527.266 528.003 524.027C526.853 522.863 527.516 521.197 528.892 520.658C534.474 518.472 542.125 519.635 548.077 519.464C555.001 519.266 561.936 518.747 568.827 518.032C575.561 517.332 582.077 515.811 588.718 514.593Z" fill="black"/>
<path fill-rule="evenodd" clip-rule="evenodd" d="M863.662 279.17C759.522 111.497 759.522 0 494.089 0C228.656 0 -254.871 658.831 164.558 913.782C583.987 1168.73 1024 923.029 1024 762.444C1024 601.859 967.803 446.843 863.662 279.17Z" fill="#A89DD6" fill-opacity="0.5"/>
</svg>
